<?xml version="1.0" encoding="UTF-8"?>
<svg id="Layer_1" xmlns="http://www.w3.org/2000/svg" version="1.1" viewBox="0 0 800 800">
  <!-- Generator: Adobe Illustrator 29.6.1, SVG Export Plug-In . SVG Version: 2.1.1 Build 9)  -->
  <defs>
    <style>
      .st0 {
        fill: #91b8e2;
      }

      .st1 {
        fill: #f7f6f5;
      }
    </style>
  </defs>
  <rect class="st1" width="800" height="800"/>
  <g>
    <path class="st0" d="M554.43,482.43l29.24,317.57H253.27l28.16-143.51s-137.01-50.57-88-254.23l166-13.78s4.58,54.67-20.65,72.83l-80.29,6.67s4.58,22.56,39,26.59c0,0,91.77-16.79,128.47,71.93l20.65-1.71s-6.9-59.08-32.12-68.45l139.94-13.91Z"/>
    <path class="st0" d="M556.72,444.39c0,3.79-3.08,7.14-6.88,7.45l-57.35,4.76c-3.81.32-6.88-2.51-6.88-6.32V98.14c0-3.8,3.07-7.14,6.88-7.45l57.35-4.76c3.8-.32,6.88,2.51,6.88,6.3v352.15Z"/>
    <path class="st0" d="M461.54,452.28c0,3.8-3.09,7.14-6.88,7.45l-57.35,4.76c-3.8.32-6.88-2.51-6.88-6.31v-170.91c0-3.8,3.08-7.14,6.88-7.45l57.35-4.76c3.8-.31,6.88,2.52,6.88,6.31v170.91Z"/>
    <path class="st0" d="M358.09,352.76c0,3.79-3.08,7.13-6.88,7.45l-57.35,4.77c-3.8.3-6.88-2.52-6.88-6.32v-90.04c0-3.8,3.08-7.14,6.88-7.45l57.35-4.77c3.8-.3,6.88,2.53,6.88,6.32v90.05Z"/>
    <path class="st0" d="M258.3,367.92c0,3.8-3.08,7.14-6.88,7.45l-57.35,4.76c-3.8.32-6.88-2.51-6.88-6.31V119.46c0-3.8,3.08-7.14,6.88-7.45l57.35-4.76c3.8-.32,6.88,2.51,6.88,6.31v254.36Z"/>
  </g>
</svg>